# xmcd
#
# Track frame offsets:
#	150
#	14722
#	31806
#	53475
#	68085
#	88476
#	105176
#	122712
#	149440
#	169645
#	182871
#	202771
#	222096
#	237858
#
# Disc length: 3402 seconds
#
# Revision: 1
# Processed by: cddbd v1.5.1PL0 Copyright (c) Steve Scherf et al.
# Submitted via: audiograbber 1.83.01
#
DISCID=bb0d480e
DTITLE=Tommy Schneller - A Heartbeat Away
DYEAR=2004
DGENRE=Blues
TTITLE0=Nights
TTITLE1=Talking saxophone
TTITLE2=A heartbeat away
TTITLE3=Perfect day
TTITLE4=You're the one
TTITLE5=Give it up
TTITLE6=Every night and every day
TTITLE7=What's going on
TTITLE8=Giving up on you
TTITLE9=Mean so much to me
TTITLE10=I knew she didn't want me
TTITLE11=Why why why
TTITLE12=Sometimes things go wrong
TTITLE13=Talking saxophone
EXTD=
EXTT0=
EXTT1=
EXTT2=
EXTT3=
EXTT4=
EXTT5=
EXTT6=
EXTT7=
EXTT8=
EXTT9=
EXTT10=
EXTT11=
EXTT12=
EXTT13=
PLAYORDER=
